<svg xmlns="http://www.w3.org/2000/svg" version="1.1" xmlns:xlink="http://www.w3.org/1999/xlink" xmlns:svgjs="http://svgjs.dev/svgjs" width="1000" height="1000" viewBox="0 0 1000 1000"><rect width="1000" height="1000" fill="#c8c8c8"></rect><g transform="matrix(0.7,0,0,0.7,149.57582296928558,259.0543185151063)"><svg viewBox="0 0 396 273" data-background-color="#c8c8c8" preserveAspectRatio="xMidYMid meet" height="689" width="1000" xmlns="http://www.w3.org/2000/svg" xmlns:xlink="http://www.w3.org/1999/xlink"><g id="tight-bounds" transform="matrix(1,0,0,1,0.24003699424281422,-0.11565198968276036)"><svg viewBox="0 0 395.52 273.2313039793655" height="273.2313039793655" width="395.52"><g><svg viewBox="0 0 395.52 273.2313039793655" height="273.2313039793655" width="395.52"><g transform="matrix(1,0,0,1,0,176.38767740680026)"><svg viewBox="0 0 395.52 96.84362657256523" height="96.84362657256523" width="395.52"><g id="textblocktransform"><svg viewBox="0 0 395.52 96.84362657256523" height="96.84362657256523" width="395.52" id="textblock"><g><svg viewBox="0 0 395.52 68.72312561804725" height="68.72312561804725" width="395.52"><g transform="matrix(1,0,0,1,0,0)"><svg width="395.52" viewBox="2.5502610206604004 -35.372108459472656 269.92724609375 46.90087890625" height="68.72312561804725" data-palette-color="#6b7280"><path d="M4.641 11.507v0c-0.264 0.04-0.549 0.025-0.856-0.043-0.315-0.074-0.586-0.202-0.816-0.383-0.229-0.181-0.364-0.404-0.403-0.668v0c-0.02-0.132-0.021-0.25-0.003-0.353v0l5.255-34.888c0.072-0.415 0.277-0.739 0.612-0.972 0.329-0.231 0.708-0.379 1.137-0.444v0c0.461-0.069 0.894-0.037 1.299 0.098 0.406 0.141 0.685 0.386 0.838 0.734v0l15.226 31.81c0.048 0.094 0.079 0.19 0.094 0.29v0c0.04 0.264-0.024 0.516-0.19 0.756-0.166 0.241-0.388 0.449-0.664 0.626-0.27 0.175-0.57 0.288-0.9 0.337v0c-0.264 0.04-0.518 0.01-0.762-0.087-0.251-0.097-0.431-0.286-0.54-0.566v0l-3.451-7.218-13.547 2.036-1.128 7.905c-0.055 0.305-0.188 0.541-0.4 0.707-0.204 0.166-0.471 0.273-0.801 0.323zM10.348-21.042l-3.018 20.698 11.936-1.794zM33.235 7.401v0c-0.424 0.051-0.814-0.01-1.17-0.182-0.357-0.179-0.561-0.48-0.612-0.904v0l-4.018-33.53c-0.056-0.463 0.071-0.804 0.381-1.023 0.309-0.225 0.675-0.363 1.099-0.413v0c0.397-0.048 0.758 0.02 1.082 0.202 0.317 0.177 0.627 0.415 0.931 0.715 0.304 0.293 0.581 0.642 0.831 1.048v0l16.458 24.637-3.273-27.314c-0.052-0.43 0.074-0.754 0.377-0.972 0.309-0.225 0.678-0.363 1.108-0.415v0c0.391-0.047 0.769 0.002 1.136 0.146 0.366 0.137 0.574 0.421 0.626 0.851v0l4.024 33.58c0.051 0.424-0.083 0.765-0.401 1.025-0.319 0.253-0.673 0.403-1.064 0.45v0c-0.463 0.056-0.901-0.093-1.313-0.447-0.404-0.348-0.767-0.737-1.087-1.169v0l-16.909-25.036 3.269 27.275c0.051 0.424-0.083 0.765-0.401 1.025-0.319 0.253-0.677 0.403-1.074 0.451zM69.41 3.962v0c-1.913 0.163-3.676-0.034-5.29-0.592-1.607-0.565-2.932-1.583-3.974-3.053-1.036-1.477-1.664-3.501-1.883-6.072v0l-1.309-15.344c-0.217-2.537 0.061-4.622 0.831-6.254 0.778-1.625 1.905-2.849 3.38-3.67 1.475-0.828 3.185-1.326 5.132-1.492v0c1.946-0.166 3.723 0.034 5.33 0.599 1.613 0.558 2.948 1.572 4.003 3.04 1.056 1.476 1.692 3.482 1.909 6.02v0l1.309 15.344c0.219 2.571-0.066 4.673-0.857 6.306-0.791 1.627-1.934 2.855-3.429 3.685-1.489 0.823-3.206 1.317-5.152 1.483zM69.152 0.943v0c2.212-0.189 3.89-0.948 5.035-2.276 1.151-1.329 1.616-3.296 1.393-5.9v0l-1.309-15.344c-0.219-2.571-1.009-4.414-2.369-5.529-1.353-1.116-3.136-1.579-5.347-1.39v0c-2.212 0.189-3.877 0.946-4.995 2.273-1.118 1.327-1.567 3.275-1.348 5.846v0l1.309 15.344c0.222 2.604 0.997 4.465 2.323 5.583 1.327 1.118 3.096 1.583 5.308 1.393zM93.515 2.081v0c-0.433 0.023-0.818-0.064-1.155-0.26-0.344-0.202-0.528-0.516-0.55-0.942v0l-1.668-31.897-8.329 0.436c-0.399 0.021-0.714-0.12-0.943-0.422-0.229-0.302-0.355-0.652-0.376-1.051v0c-0.021-0.393 0.068-0.751 0.265-1.076 0.196-0.331 0.494-0.507 0.893-0.527v0l19.883-1.04c0.433-0.023 0.757 0.111 0.972 0.4 0.215 0.289 0.333 0.63 0.354 1.023v0c0.021 0.399-0.06 0.771-0.242 1.114-0.183 0.337-0.49 0.516-0.923 0.539v0l-8.279 0.433 1.669 31.896c0.022 0.426-0.134 0.758-0.469 0.996-0.335 0.231-0.702 0.357-1.102 0.378zM110.395 1.362v0c-0.427 0.011-0.809-0.087-1.147-0.292-0.339-0.212-0.513-0.531-0.524-0.957v0l-0.833-33.81c-0.01-0.4 0.149-0.704 0.478-0.912 0.328-0.208 0.706-0.317 1.132-0.328v0c0.4-0.01 0.776 0.081 1.127 0.272 0.351 0.191 0.532 0.487 0.542 0.887v0l0.366 14.846 14.356-0.354-0.366-14.845c-0.01-0.4 0.146-0.704 0.468-0.912 0.328-0.208 0.709-0.318 1.142-0.328v0c0.393-0.01 0.766 0.081 1.117 0.272 0.351 0.191 0.532 0.487 0.542 0.887v0l0.833 33.81c0.011 0.427-0.155 0.754-0.496 0.982-0.341 0.222-0.709 0.338-1.102 0.348v0c-0.433 0.011-0.819-0.087-1.158-0.292-0.332-0.212-0.503-0.531-0.513-0.958v0l-0.398-16.135-14.355 0.354 0.397 16.135c0.011 0.427-0.155 0.754-0.496 0.982-0.341 0.222-0.712 0.338-1.112 0.348zM155.977 1.142l-17.689-0.166c-0.36-0.003-0.696-0.113-1.007-0.329-0.318-0.223-0.475-0.548-0.471-0.975v0l0.317-33.768c0.004-0.4 0.167-0.705 0.488-0.916 0.315-0.217 0.653-0.324 1.013-0.32v0l17.689 0.165c0.427 0.004 0.738 0.167 0.936 0.489 0.197 0.315 0.294 0.636 0.291 0.963v0c-0.004 0.433-0.118 0.806-0.341 1.117-0.216 0.311-0.521 0.465-0.914 0.461v0l-15.899-0.149-0.128 13.66 7.799 0.073c0.4 0.004 0.705 0.157 0.916 0.458 0.211 0.302 0.314 0.65 0.31 1.043v0c-0.003 0.3-0.106 0.599-0.308 0.898-0.196 0.292-0.511 0.435-0.944 0.431v0l-7.8-0.073-0.129 13.759 15.9 0.149c0.393 0.004 0.695 0.157 0.905 0.459 0.217 0.295 0.324 0.66 0.32 1.093v0c-0.003 0.367-0.107 0.706-0.309 1.017-0.203 0.311-0.518 0.465-0.945 0.461zM180.616 2.187v0c-0.366-0.015-0.692-0.211-0.977-0.589-0.279-0.371-0.493-0.76-0.644-1.167v0l-7.098-15.196-6.305-0.252-0.61 15.237c-0.017 0.426-0.203 0.742-0.558 0.949-0.355 0.199-0.732 0.291-1.132 0.275v0c-0.426-0.017-0.802-0.139-1.127-0.366-0.324-0.233-0.478-0.563-0.46-0.989v0l1.353-33.793c0.013-0.333 0.141-0.602 0.382-0.805 0.242-0.21 0.547-0.325 0.915-0.344v0l8.783 0.352c1.952 0.078 3.725 0.449 5.32 1.114 1.595 0.658 2.854 1.709 3.776 3.153 0.923 1.445 1.334 3.426 1.234 5.944v0c-0.082 2.052-0.489 3.723-1.222 5.016-0.733 1.298-1.699 2.28-2.9 2.946-1.208 0.666-2.543 1.099-4.006 1.301v0l7.056 15.004c0.09 0.097 0.142 0.206 0.157 0.326 0.009 0.114 0.011 0.221 0.007 0.321v0c-0.011 0.266-0.111 0.529-0.302 0.789-0.19 0.253-0.438 0.449-0.744 0.59-0.306 0.135-0.605 0.196-0.898 0.184zM166.262-31.744l-0.557 13.899 6.755 0.27c2.212 0.089 4.028-0.376 5.45-1.393 1.415-1.024 2.173-2.792 2.274-5.303v0c0.1-2.485-0.516-4.284-1.845-5.398-1.336-1.114-3.111-1.716-5.322-1.805v0zM205.288 3.975v0c-0.432-0.037-0.801-0.175-1.109-0.415-0.314-0.247-0.452-0.584-0.416-1.009v0l2.696-31.826-8.31-0.704c-0.399-0.034-0.691-0.216-0.877-0.546-0.186-0.33-0.262-0.695-0.229-1.093v0c0.033-0.392 0.169-0.735 0.408-1.029 0.24-0.301 0.559-0.434 0.958-0.401v0l19.839 1.681c0.432 0.037 0.735 0.213 0.908 0.528 0.174 0.316 0.244 0.67 0.211 1.062v0c-0.034 0.399-0.164 0.755-0.391 1.071-0.227 0.309-0.556 0.445-0.988 0.408v0l-8.261-0.7-2.696 31.826c-0.036 0.425-0.236 0.733-0.6 0.923-0.363 0.183-0.744 0.258-1.143 0.224zM239.335 7.553v0c-0.364-0.041-0.675-0.261-0.933-0.658-0.251-0.391-0.437-0.794-0.558-1.21v0l-5.984-15.668-6.271-0.706-1.706 15.154c-0.048 0.424-0.256 0.726-0.625 0.906-0.368 0.173-0.751 0.237-1.149 0.193v0c-0.424-0.048-0.79-0.196-1.097-0.446-0.307-0.256-0.436-0.596-0.388-1.02v0l3.783-33.607c0.037-0.331 0.184-0.59 0.44-0.776 0.256-0.193 0.569-0.285 0.937-0.277v0l8.735 0.983c1.941 0.219 3.683 0.717 5.225 1.494 1.543 0.771 2.723 1.91 3.54 3.418 0.816 1.507 1.084 3.513 0.802 6.017v0c-0.23 2.04-0.756 3.678-1.58 4.914-0.824 1.242-1.859 2.152-3.105 2.73-1.252 0.577-2.615 0.913-4.088 1.009v0l5.956 15.474c0.082 0.103 0.127 0.216 0.133 0.337 0.001 0.114-0.005 0.221-0.016 0.32v0c-0.03 0.265-0.149 0.52-0.358 0.765-0.208 0.238-0.47 0.417-0.784 0.535-0.315 0.112-0.618 0.152-0.909 0.119zM227.462-27.324l-1.556 13.823 6.717 0.756c2.199 0.248 4.045-0.085 5.537-0.997 1.486-0.92 2.369-2.628 2.65-5.126v0c0.278-2.471-0.206-4.31-1.452-5.517-1.253-1.208-2.979-1.935-5.178-2.183v0zM255.251 9.815v0c-0.389-0.057-0.743-0.217-1.061-0.479-0.311-0.268-0.436-0.613-0.374-1.035v0l1.833-12.486c0.023-0.158 0.026-0.289 0.007-0.393v0l-7.306-21.005c-0.07-0.212-0.111-0.394-0.123-0.543-0.011-0.157-0.009-0.284 0.006-0.383v0c0.043-0.29 0.171-0.521 0.385-0.692 0.207-0.172 0.457-0.293 0.75-0.365 0.294-0.078 0.574-0.098 0.838-0.059v0c0.264 0.039 0.489 0.156 0.676 0.352 0.187 0.196 0.339 0.471 0.455 0.825v0l6.41 19.266 11.726-16.603c0.246-0.301 0.487-0.518 0.722-0.652 0.235-0.134 0.468-0.184 0.699-0.15v0c0.297 0.044 0.568 0.144 0.815 0.301 0.241 0.15 0.439 0.337 0.595 0.563 0.149 0.224 0.202 0.481 0.159 0.771v0c-0.015 0.099-0.049 0.222-0.104 0.369-0.054 0.14-0.129 0.304-0.224 0.492v0l-13.085 18.011c-0.08 0.089-0.132 0.213-0.156 0.371v0l-1.833 12.486c-0.062 0.422-0.274 0.718-0.635 0.887-0.354 0.164-0.746 0.214-1.175 0.151z" opacity="1" transform="matrix(1,0,0,1,0,0)" fill="#6b7280" class="wordmark-text-0" data-fill-palette-color="primary" id="text-0"></path></svg></g></svg></g><g transform="matrix(1,0,0,1,118.31980799999998,74.16665508526387)"><svg viewBox="0 0 158.88038400000002 22.676971487301355" height="22.676971487301355" width="158.88038400000002"><g transform="matrix(1,0,0,1,0,0)"><svg width="158.88038400000002" viewBox="3.549999952316284 -38.79999923706055 336.6100158691406 48.04999923706055" height="22.676971487301355" data-palette-color="#97978d"><path d="M3.55-10.4L3.55-33.05 9.6-34.05 9.6-26.15 18.9-26.15 18.9-21.1 9.6-21.1 9.6-10.45Q9.6-7.3 10.6-5.95 11.6-4.6 14-4.6L14-4.6Q15.65-4.6 16.93-4.95 18.2-5.3 18.95-5.6L18.95-5.6 19.95-0.8Q18.9-0.35 17.2 0.13 15.5 0.6 13.2 0.6L13.2 0.6Q10.4 0.6 8.53-0.15 6.65-0.9 5.55-2.33 4.45-3.75 4-5.78 3.55-7.8 3.55-10.4L3.55-10.4ZM47.8-13.1L47.8-13.1Q47.8-10 46.9-7.45 46-4.9 44.35-3.1 42.7-1.3 40.37-0.3 38.05 0.7 35.25 0.7L35.25 0.7Q32.45 0.7 30.15-0.3 27.85-1.3 26.2-3.1 24.55-4.9 23.62-7.45 22.7-10 22.7-13.1L22.7-13.1Q22.7-16.2 23.62-18.73 24.55-21.25 26.22-23.05 27.9-24.85 30.2-25.83 32.5-26.8 35.25-26.8L35.25-26.8Q38-26.8 40.32-25.83 42.65-24.85 44.3-23.05 45.95-21.25 46.87-18.73 47.8-16.2 47.8-13.1ZM41.6-13.1L41.6-13.1Q41.6-17 39.92-19.28 38.25-21.55 35.25-21.55L35.25-21.55Q32.25-21.55 30.57-19.28 28.9-17 28.9-13.1L28.9-13.1Q28.9-9.15 30.57-6.85 32.25-4.55 35.25-4.55L35.25-4.55Q38.25-4.55 39.92-6.85 41.6-9.15 41.6-13.1ZM71.74-38.8L71.74-15.95Q72.89-17.15 74.19-18.53 75.49-19.9 76.74-21.28 77.99-22.65 79.12-23.93 80.24-25.2 81.04-26.15L81.04-26.15 88.19-26.15Q85.69-23.35 82.92-20.35 80.14-17.35 77.34-14.5L77.34-14.5Q78.84-13.25 80.49-11.48 82.14-9.7 83.69-7.7 85.24-5.7 86.59-3.7 87.94-1.7 88.84 0L88.84 0 81.84 0Q80.94-1.55 79.77-3.25 78.59-4.95 77.24-6.55 75.89-8.15 74.49-9.58 73.09-11 71.74-12L71.74-12 71.74 0 65.69 0 65.69-37.8 71.74-38.8ZM90.64-12.95L90.64-12.95Q90.64-16.4 91.67-19 92.69-21.6 94.39-23.33 96.09-25.05 98.29-25.93 100.49-26.8 102.79-26.8L102.79-26.8Q108.19-26.8 111.22-23.45 114.24-20.1 114.24-13.45L114.24-13.45Q114.24-12.95 114.22-12.33 114.19-11.7 114.14-11.2L114.14-11.2 96.89-11.2Q97.14-8.05 99.12-6.33 101.09-4.6 104.84-4.6L104.84-4.6Q107.04-4.6 108.87-5 110.69-5.4 111.74-5.85L111.74-5.85 112.54-0.9Q112.04-0.65 111.17-0.38 110.29-0.1 109.17 0.13 108.04 0.35 106.74 0.5 105.44 0.65 104.09 0.65L104.09 0.65Q100.64 0.65 98.09-0.38 95.54-1.4 93.89-3.23 92.24-5.05 91.44-7.53 90.64-10 90.64-12.95ZM96.94-15.65L108.19-15.65Q108.19-16.9 107.84-18.03 107.49-19.15 106.82-19.98 106.14-20.8 105.17-21.28 104.19-21.75 102.84-21.75L102.84-21.75Q101.44-21.75 100.39-21.23 99.34-20.7 98.62-19.85 97.89-19 97.49-17.9 97.09-16.8 96.94-15.65L96.94-15.65ZM119.19-12.95L119.19-12.95Q119.19-16.4 120.21-19 121.24-21.6 122.94-23.33 124.64-25.05 126.84-25.93 129.04-26.8 131.34-26.8L131.34-26.8Q136.74-26.8 139.76-23.45 142.79-20.1 142.79-13.45L142.79-13.45Q142.79-12.95 142.76-12.33 142.74-11.7 142.69-11.2L142.69-11.2 125.44-11.2Q125.69-8.05 127.66-6.33 129.64-4.6 133.39-4.6L133.39-4.6Q135.59-4.6 137.41-5 139.24-5.4 140.29-5.85L140.29-5.85 141.09-0.9Q140.59-0.65 139.71-0.38 138.84-0.1 137.71 0.13 136.59 0.35 135.29 0.5 133.99 0.65 132.64 0.65L132.64 0.65Q129.19 0.65 126.64-0.38 124.09-1.4 122.44-3.23 120.79-5.05 119.99-7.53 119.19-10 119.19-12.95ZM125.49-15.65L136.74-15.65Q136.74-16.9 136.39-18.03 136.04-19.15 135.36-19.98 134.69-20.8 133.71-21.28 132.74-21.75 131.39-21.75L131.39-21.75Q129.99-21.75 128.94-21.23 127.89-20.7 127.16-19.85 126.44-19 126.04-17.9 125.64-16.8 125.49-15.65L125.49-15.65ZM166.54-12.95L166.54-12.95Q166.54-17 164.71-19.25 162.89-21.5 158.84-21.5L158.84-21.5Q157.99-21.5 157.06-21.43 156.14-21.35 155.24-21.1L155.24-21.1 155.24-6.15Q156.03-5.6 157.36-5.13 158.69-4.65 160.19-4.65L160.19-4.65Q163.49-4.65 165.01-6.9 166.54-9.15 166.54-12.95ZM172.74-13.05L172.74-13.05Q172.74-10.05 171.96-7.55 171.19-5.05 169.74-3.25 168.29-1.45 166.11-0.45 163.94 0.55 161.19 0.55L161.19 0.55Q159.34 0.55 157.78 0.1 156.24-0.35 155.24-0.9L155.24-0.9 155.24 9.25 149.19 9.25 149.19-25.3Q151.03-25.8 153.74-26.25 156.44-26.7 159.44-26.7L159.44-26.7Q162.53-26.7 164.99-25.75 167.44-24.8 169.16-23.03 170.89-21.25 171.81-18.73 172.74-16.2 172.74-13.05ZM196.73-26.15L196.73 0 190.68 0 190.68-26.15 196.73-26.15ZM197.38-33.8L197.38-33.8Q197.38-32.1 196.28-31.1 195.18-30.1 193.68-30.1L193.68-30.1Q192.13-30.1 191.03-31.1 189.93-32.1 189.93-33.8L189.93-33.8Q189.93-35.55 191.03-36.55 192.13-37.55 193.68-37.55L193.68-37.55Q195.18-37.55 196.28-36.55 197.38-35.55 197.38-33.8ZM204.13-10.4L204.13-33.05 210.18-34.05 210.18-26.15 219.48-26.15 219.48-21.1 210.18-21.1 210.18-10.45Q210.18-7.3 211.18-5.95 212.18-4.6 214.58-4.6L214.58-4.6Q216.23-4.6 217.5-4.95 218.78-5.3 219.53-5.6L219.53-5.6 220.53-0.8Q219.48-0.35 217.78 0.13 216.08 0.6 213.78 0.6L213.78 0.6Q210.98 0.6 209.1-0.15 207.23-0.9 206.13-2.33 205.03-3.75 204.58-5.78 204.13-7.8 204.13-10.4L204.13-10.4ZM246.17-4.25L246.17-4.25Q248.97-4.25 250.42-4.55L250.42-4.55 250.42-11.25Q249.92-11.4 248.97-11.55 248.02-11.7 246.87-11.7L246.87-11.7Q245.87-11.7 244.85-11.55 243.82-11.4 243-11 242.17-10.6 241.67-9.88 241.17-9.15 241.17-8.05L241.17-8.05Q241.17-5.9 242.52-5.08 243.87-4.25 246.17-4.25ZM245.67-26.8L245.67-26.8Q248.67-26.8 250.72-26.05 252.77-25.3 254-23.95 255.22-22.6 255.75-20.68 256.27-18.75 256.27-16.45L256.27-16.45 256.27-0.6Q254.87-0.3 252.05 0.13 249.22 0.55 245.67 0.55L245.67 0.55Q243.32 0.55 241.37 0.1 239.42-0.35 238.05-1.35 236.67-2.35 235.9-3.95 235.12-5.55 235.12-7.9L235.12-7.9Q235.12-10.15 236-11.7 236.87-13.25 238.37-14.23 239.87-15.2 241.85-15.63 243.82-16.05 245.97-16.05L245.97-16.05Q246.97-16.05 248.07-15.93 249.17-15.8 250.42-15.5L250.42-15.5 250.42-16.5Q250.42-17.55 250.17-18.5 249.92-19.45 249.3-20.18 248.67-20.9 247.65-21.3 246.62-21.7 245.07-21.7L245.07-21.7Q242.97-21.7 241.22-21.4 239.47-21.1 238.37-20.7L238.37-20.7 237.62-25.6Q238.77-26 240.97-26.4 243.17-26.8 245.67-26.8ZM273.62-4.5L272.77 0.5Q270.07 0.45 268.3-0.1 266.52-0.65 265.47-1.68 264.42-2.7 264-4.23 263.57-5.75 263.57-7.7L263.57-7.7 263.57-37.8 269.62-38.8 269.62-8.85Q269.62-7.75 269.8-7 269.97-6.25 270.42-5.73 270.87-5.2 271.65-4.93 272.42-4.65 273.62-4.5L273.62-4.5ZM284.62-26.15L284.62 0 278.57 0 278.57-26.15 284.62-26.15ZM285.27-33.8L285.27-33.8Q285.27-32.1 284.17-31.1 283.07-30.1 281.57-30.1L281.57-30.1Q280.02-30.1 278.92-31.1 277.82-32.1 277.82-33.8L277.82-33.8Q277.82-35.55 278.92-36.55 280.02-37.55 281.57-37.55L281.57-37.55Q283.07-37.55 284.17-36.55 285.27-35.55 285.27-33.8ZM304.22 0L299.02 0Q296.52-5.15 293.89-11.83 291.27-18.5 289.12-26.15L289.12-26.15 295.57-26.15Q296.12-23.95 296.84-21.43 297.57-18.9 298.39-16.38 299.22-13.85 300.09-11.48 300.97-9.1 301.72-7.2L301.72-7.2Q302.47-9.1 303.32-11.48 304.17-13.85 304.99-16.38 305.82-18.9 306.57-21.43 307.32-23.95 307.87-26.15L307.87-26.15 314.12-26.15Q311.97-18.5 309.34-11.83 306.72-5.15 304.22 0L304.22 0ZM316.56-12.95L316.56-12.95Q316.56-16.4 317.59-19 318.61-21.6 320.31-23.33 322.01-25.05 324.21-25.93 326.41-26.8 328.71-26.8L328.71-26.8Q334.11-26.8 337.14-23.45 340.16-20.1 340.16-13.45L340.16-13.45Q340.16-12.95 340.14-12.33 340.11-11.7 340.06-11.2L340.06-11.2 322.81-11.2Q323.06-8.05 325.04-6.33 327.01-4.6 330.76-4.6L330.76-4.6Q332.96-4.6 334.79-5 336.61-5.4 337.66-5.85L337.66-5.85 338.46-0.9Q337.96-0.65 337.09-0.38 336.21-0.1 335.09 0.13 333.96 0.35 332.66 0.5 331.36 0.65 330.01 0.65L330.01 0.65Q326.56 0.65 324.01-0.38 321.46-1.4 319.81-3.23 318.16-5.05 317.36-7.53 316.56-10 316.56-12.95ZM322.86-15.65L334.11-15.65Q334.11-16.9 333.76-18.03 333.41-19.15 332.74-19.98 332.06-20.8 331.09-21.28 330.11-21.75 328.76-21.75L328.76-21.75Q327.36-21.75 326.31-21.23 325.26-20.7 324.54-19.85 323.81-19 323.41-17.9 323.01-16.8 322.86-15.65L322.86-15.65Z" opacity="1" transform="matrix(1,0,0,1,0,0)" fill="#97978d" class="slogan-text-1" data-fill-palette-color="secondary" id="text-1"></path></svg></g></svg></g></svg></g></svg></g><g transform="matrix(1,0,0,1,119.40998886551242,0)"><svg viewBox="0 0 156.70002226897515 156.69298779441053" height="156.69298779441053" width="156.70002226897515"><g><svg xmlns="http://www.w3.org/2000/svg" xmlns:xlink="http://www.w3.org/1999/xlink" version="1.1" x="0" y="0" viewBox="5.302999973297119 5.304999828338623 89.3949966430664 89.39098358154297" enable-background="new 0 0 100 100" xml:space="preserve" height="156.69298779441053" width="156.70002226897515" class="icon-icon-0" data-fill-palette-color="accent" id="icon-0"><g fill="#97978d" data-fill-palette-color="accent"><path d="M39.405 33.079v2.979 9.365 2.979h2.063 0.915 0.107v3.087h6.066v-3.087h3.085v-2.979-9.365-2.979h-3.085v-3.087h-6.066v3.087H39.405z" fill="#97978d" data-fill-palette-color="accent"></path><path d="M67.176 33.08v2.98 9.363 2.98h2.064 0.916 0.105v3.086h6.066v-3.086h3.086v-2.98-9.363-2.98h-3.086v-3.087h-6.066v3.087H67.176z" fill="#97978d" data-fill-palette-color="accent"></path><path d="M5.303 36.166v30.756H8.39v6.172h3.086v3.086h3.087v6.172h3.086v3.087h6.171v3.086h3.087v3.086h9.259v3.085h27.67V91.61h9.258v-3.086h3.084v-3.086l0 0h0.107 2.979 0.109 2.979v-3.087h3.086V76.18h3.086v-3.086h3.086v-6.172h3.088V36.166h-3.088v-6.173h-3.086v-6.171h-3.086v-3.086h-3.086v-3.087h-3.088v-3.086h-3.086v-3.087h-3.084V8.392h-9.258V5.305h-27.67v3.087h-9.259v3.085H23.82v3.087h-3.084v3.086h-3.087v3.086h-3.086v3.087h-3.087v6.171H8.39v6.173H8.285 5.303zM8.285 39.146h3.085v-6.173h3.086v-6.172h3.087l0.001-3.086h3.084v-3.087h3.088v-3.086h3.086v-3.086h3.085l0.006-3.086h9.253l0.003-3.086h21.706l0 0v3.086h9.26v3.086h3.086l0 0v3.086h3.086v0.106 2.979h2.979l0 0h0.109l0 0v0.107 2.979h3.084l0 0v3.086h3.086l0 0v6.172h2.98 0.107l0 0v6.173h3.086l0 0v24.795h-3.086v6.172h-3.088v3.086h-3.086v6.173h-3.084v1.694 1.285 0.107h-0.109-2.979-0.107-1.488-1.49v1.489 1.49 0.106h-0.105-1.621-1.359v2.005 0.975 0.105h-9.26v1.804 1.177 0.106H39.145V88.63h-9.259v-3.085h-3.085v-3.087h-6.174v-2.536-0.551h-1.003-1.976-0.106v-0.105-2.979V76.18v-1.73-1.25h-0.39-2.59-0.107v-0.105-2.98H11.37v-6.172H8.285V51.076v-4.664V39.146z" fill="#97978d" data-fill-palette-color="accent"></path><rect x="48.516" y="63.935" width="9.154" height="2.979" fill="#97978d" data-fill-palette-color="accent"></rect></g></svg></g></svg></g><g></g></svg></g><defs></defs></svg><rect width="395.52" height="273.2313039793655" fill="none" stroke="none" visibility="hidden"></rect></g></svg></g></svg>