{
	"asset":{
		"generator":"Khronos glTF Blender I/O v3.6.27",
		"version":"2.0"
	},
	"scene":0,
	"scenes":[
		{
			"name":"Scene",
			"nodes":[
				0,
				1
			]
		}
	],
	"nodes":[
		{
			"mesh":0,
			"name":"Icosphere.022",
			"scale":[
				3.7374486923217773,
				4.251880168914795,
				3.7374486923217773
			],
			"translation":[
				0.3110228478908539,
				6.888547897338867,
				-0.40826258063316345
			]
		},
		{
			"mesh":1,
			"name":"Cylinder.022",
			"scale":[
				0.6301970481872559,
				4.876916408538818,
				0.6301970481872559
			],
			"translation":[
				0,
				4.679128646850586,
				0
			]
		}
	],
	"materials":[
		{
			"doubleSided":true,
			"name":"Tree2.022",
			"pbrMetallicRoughness":{
				"baseColorFactor":[
					0.004807524848729372,
					0.13758397102355957,
					0,
					1
				],
				"metallicFactor":0,
				"roughnessFactor":0.5
			}
		},
		{
			"doubleSided":true,
			"name":"Tree1.022",
			"pbrMetallicRoughness":{
				"baseColorFactor":[
					0.15232519805431366,
					0.042465612292289734,
					0.004106330219656229,
					1
				],
				"metallicFactor":0,
				"roughnessFactor":0.5
			}
		}
	],
	"meshes":[
		{
			"name":"Icosphere.022",
			"primitives":[
				{
					"attributes":{
						"POSITION":0,
						"NORMAL":1,
						"TEXCOORD_0":2
					},
					"indices":3,
					"material":0
				}
			]
		},
		{
			"name":"Cylinder.022",
			"primitives":[
				{
					"attributes":{
						"POSITION":4,
						"NORMAL":5,
						"TEXCOORD_0":6
					},
					"indices":7,
					"material":1
				}
			]
		}
	],
	"accessors":[
		{
			"bufferView":0,
			"componentType":5126,
			"count":240,
			"max":[
				0.8753656148910522,
				1.6846822500228882,
				1.1262117624282837
			],
			"min":[
				-1.026750087738037,
				-0.3153177499771118,
				-0.8737881183624268
			],
			"type":"VEC3"
		},
		{
			"bufferView":1,
			"componentType":5126,
			"count":240,
			"type":"VEC3"
		},
		{
			"bufferView":2,
			"componentType":5126,
			"count":240,
			"type":"VEC2"
		},
		{
			"bufferView":3,
			"componentType":5123,
			"count":240,
			"type":"SCALAR"
		},
		{
			"bufferView":4,
			"componentType":5126,
			"count":192,
			"max":[
				1,
				1,
				1
			],
			"min":[
				-1,
				-1,
				-1
			],
			"type":"VEC3"
		},
		{
			"bufferView":5,
			"componentType":5126,
			"count":192,
			"type":"VEC3"
		},
		{
			"bufferView":6,
			"componentType":5126,
			"count":192,
			"type":"VEC2"
		},
		{
			"bufferView":7,
			"componentType":5123,
			"count":372,
			"type":"SCALAR"
		}
	],
	"bufferViews":[
		{
			"buffer":0,
			"byteLength":2880,
			"byteOffset":0,
			"target":34962
		},
		{
			"buffer":0,
			"byteLength":2880,
			"byteOffset":2880,
			"target":34962
		},
		{
			"buffer":0,
			"byteLength":1920,
			"byteOffset":5760,
			"target":34962
		},
		{
			"buffer":0,
			"byteLength":480,
			"byteOffset":7680,
			"target":34963
		},
		{
			"buffer":0,
			"byteLength":2304,
			"byteOffset":8160,
			"target":34962
		},
		{
			"buffer":0,
			"byteLength":2304,
			"byteOffset":10464,
			"target":34962
		},
		{
			"buffer":0,
			"byteLength":1536,
			"byteOffset":12768,
			"target":34962
		},
		{
			"buffer":0,
			"byteLength":744,
			"byteOffset":14304,
			"target":34963
		}
	],
	"buffers":[
		{
			"byteLength":15048,
			"uri":"data:application/octet-stream;base64,"
		}
	]
}
